# xmcd
#
# Track frame offsets:
#	150
#	20387
#	43025
#	65925
#	98017
#	129207
#	160880
#	179162
#	199512
#	221882
#	247882
#	265770
#	284847
#	300867
#
# Disc length: 4510 seconds
#
# Revision: 9
# Processed by: cddbd v1.5.2PL0 Copyright (c) Steve Scherf et al.
# Submitted via: EZCDAudioConverter 1.3.4.1
#
DISCID=ca119c0e
DTITLE=Grace Jones - Private Life The Compass Point Sessions - Disc 2
DYEAR=1998
DGENRE=Dance
TTITLE0=Walking In The Rain
TTITLE1=Cry Now, Laugh Later
TTITLE2=Nightclubbing
TTITLE3=The Apple Stretching
TTITLE4=Nipple To The Bottle [12'' Version]
TTITLE5=My Jamaican Guy [12'' Version]
TTITLE6=Feel Up
TTITLE7=I've Seen That Face Before (Libertango)
TTITLE8=Demolition Man [Long Version]
TTITLE9=Unlimited Capacity For Love
TTITLE10=Ring Of Fire [Demo]
TTITLE11=Man Around The House
TTITLE12=Living My Life [7'' Version]
TTITLE13=Slave To The Rhythm [Hot Blooded Version]
EXTD=
EXTT0=
EXTT1=
EXTT2=
EXTT3=
EXTT4=
EXTT5=
EXTT6=
EXTT7=
EXTT8=
EXTT9=
EXTT10=
EXTT11=
EXTT12=
EXTT13=
PLAYORDER=
